<?xml version="1.0" encoding="utf-8"?>
<!-- Generator: Adobe Illustrator 22.0.1, SVG Export Plug-In . SVG Version: 6.00 Build 0)  -->
<svg version="1.1" id="Layer_1" xmlns="http://www.w3.org/2000/svg" xmlns:xlink="http://www.w3.org/1999/xlink" x="0px" y="0px"
	 viewBox="0 0 240 278" style="enable-background:new 0 0 240 278;" xml:space="preserve">
<style type="text/css">
	.st0{fill:url(#SVGID_1_);stroke:url(#SVGID_2_);stroke-width:3;stroke-miterlimit:10;}
	.st1{fill:#FFFFFF;}
	.st2{fill:none;stroke:#FFFFFF;stroke-width:0.25;stroke-miterlimit:10;}
	.st3{fill:none;stroke:#FFFFFF;stroke-width:0.75;stroke-miterlimit:10;}
</style>
<linearGradient id="SVGID_1_" gradientUnits="userSpaceOnUse" x1="59.8538" y1="807.0566" x2="179.5462" y2="599.7433" gradientTransform="matrix(1 0 0 1 0 -564)">
	<stop  offset="0.1538" style="stop-color:#0017BF"/>
	<stop  offset="0.616" style="stop-color:#001AC0"/>
	<stop  offset="0.9051" style="stop-color:#0071E9"/>
</linearGradient>
<linearGradient id="SVGID_2_" gradientUnits="userSpaceOnUse" x1="119.7" y1="563.468" x2="119.7" y2="843.332" gradientTransform="matrix(1 0 0 1 0 -564)">
	<stop  offset="0.1436" style="stop-color:#0017BF"/>
	<stop  offset="0.3545" style="stop-color:#001AC0"/>
</linearGradient>
<polygon class="st0" points="239.4,208.5 239.4,70.3 119.7,1.2 0,70.3 0,208.5 119.7,277.6 "/>
<circle class="st1" cx="116.6" cy="138.3" r="1.1"/>
<circle class="st1" cx="116.8" cy="135.3" r="1.1"/>
<circle class="st1" cx="115.5" cy="147.5" r="1.1"/>
<circle class="st1" cx="117.5" cy="141.6" r="1.1"/>
<circle class="st1" cx="117.7" cy="155.1" r="1.1"/>
<circle class="st1" cx="116.2" cy="161.1" r="1.1"/>
<circle class="st1" cx="114" cy="162.2" r="1.1"/>
<circle class="st1" cx="118.2" cy="162.9" r="1.1"/>
<circle class="st1" cx="115.5" cy="164" r="1.1"/>
<circle class="st1" cx="120.3" cy="164" r="1.1"/>
<circle class="st1" cx="123.1" cy="164" r="1.1"/>
<circle class="st1" cx="112.9" cy="164.4" r="1.1"/>
<circle class="st1" cx="110.2" cy="164.4" r="1.1"/>
<circle class="st1" cx="121.4" cy="161.9" r="1.1"/>
<circle class="st1" cx="119.3" cy="160" r="1.1"/>
<circle class="st1" cx="118.8" cy="157.4" r="1.1"/>
<circle class="st1" cx="80.6" cy="168.8" r="1.1"/>
<circle class="st1" cx="83.8" cy="168.8" r="1.1"/>
<circle class="st1" cx="86.9" cy="168.8" r="1.1"/>
<circle class="st1" cx="90.1" cy="168.8" r="1.1"/>
<circle class="st1" cx="93.2" cy="168.8" r="1.1"/>
<circle class="st1" cx="96.4" cy="168.8" r="1.1"/>
<circle class="st1" cx="99.6" cy="168.8" r="1.1"/>
<circle class="st1" cx="102.8" cy="168.8" r="1.1"/>
<circle class="st1" cx="105.9" cy="168.8" r="1.1"/>
<circle class="st1" cx="109.1" cy="168.8" r="1.1"/>
<circle class="st1" cx="112.3" cy="168.8" r="1.1"/>
<circle class="st1" cx="115.5" cy="168.8" r="1.1"/>
<circle class="st1" cx="118.6" cy="168.8" r="1.1"/>
<circle class="st1" cx="121.8" cy="168.8" r="1.1"/>
<circle class="st1" cx="125" cy="168.8" r="1.1"/>
<circle class="st1" cx="128.1" cy="168.8" r="1.1"/>
<circle class="st1" cx="131.3" cy="168.8" r="1.1"/>
<circle class="st1" cx="134.5" cy="168.8" r="1.1"/>
<circle class="st1" cx="137.7" cy="168.8" r="1.1"/>
<circle class="st1" cx="140.8" cy="168.8" r="1.1"/>
<circle class="st1" cx="144" cy="168.8" r="1.1"/>
<circle class="st1" cx="147.2" cy="168.8" r="1.1"/>
<circle class="st1" cx="150.3" cy="168.8" r="1.1"/>
<circle class="st1" cx="153.5" cy="168.8" r="1.1"/>
<circle class="st1" cx="104.7" cy="166.6" r="1.1"/>
<circle class="st1" cx="107.9" cy="166.6" r="1.1"/>
<circle class="st1" cx="111" cy="166.6" r="1.1"/>
<circle class="st1" cx="114.2" cy="166.6" r="1.1"/>
<circle class="st1" cx="117.3" cy="166.6" r="1.1"/>
<circle class="st1" cx="120.5" cy="166.6" r="1.1"/>
<circle class="st1" cx="123.7" cy="166.6" r="1.1"/>
<circle class="st1" cx="126.9" cy="166.6" r="1.1"/>
<circle class="st1" cx="101.2" cy="166.6" r="1.1"/>
<circle class="st1" cx="105.9" cy="164.5" r="1.1"/>
<circle class="st1" cx="108.1" cy="163" r="1.1"/>
<circle class="st1" cx="111.3" cy="162.2" r="1.1"/>
<circle class="st1" cx="112.3" cy="160" r="1.1"/>
<circle class="st1" cx="115" cy="159" r="1.1"/>
<circle class="st1" cx="116" cy="156.8" r="1.1"/>
<circle class="st1" cx="98" cy="167" r="1.1"/>
<circle class="st1" cx="102.8" cy="164.5" r="1.1"/>
<circle class="st1" cx="112.9" cy="157.4" r="1.1"/>
<circle class="st1" cx="109.2" cy="160.8" r="1.1"/>
<circle class="st1" cx="114.2" cy="155.1" r="1.1"/>
<circle class="st1" cx="129.7" cy="167" r="1.1"/>
<circle class="st1" cx="116" cy="152.9" r="1.1"/>
<g>
	<g>
		<line class="st2" x1="155.1" y1="170.5" x2="155.1" y2="180.1"/>
		<g>
			<rect x="79" y="170.5" class="st1" width="3.2" height="1.4"/>
			<rect x="82.2" y="178.7" class="st1" width="3.2" height="1.4"/>
			<rect x="82.2" y="177.4" class="st1" width="3.2" height="1.4"/>
			<rect x="79" y="176" class="st1" width="3.2" height="1.4"/>
			<rect x="85.3" y="174.6" class="st1" width="3.2" height="1.4"/>
			<rect x="82.2" y="174.6" class="st1" width="3.2" height="1.4"/>
			<rect x="91.6" y="174.6" class="st1" width="3.2" height="1.4"/>
			<rect x="79" y="173.2" class="st1" width="3.2" height="1.4"/>
			<rect x="82.2" y="171.9" class="st1" width="3.2" height="1.4"/>
			<rect x="88.5" y="173.2" class="st1" width="3.2" height="1.4"/>
			<rect x="88.5" y="171.9" class="st1" width="3.2" height="1.4"/>
			<rect x="85.3" y="170.5" class="st1" width="3.2" height="1.4"/>
			<rect x="82.2" y="170.5" class="st1" width="3.2" height="1.4"/>
			<rect x="88.5" y="178.7" class="st1" width="3.2" height="1.4"/>
			<rect x="85.3" y="177.4" class="st1" width="3.2" height="1.4"/>
			<rect x="82.2" y="176" class="st1" width="3.2" height="1.4"/>
			<rect x="94.9" y="177.4" class="st1" width="3.2" height="1.4"/>
			<rect x="98" y="176" class="st1" width="3.2" height="1.4"/>
			<rect x="94.9" y="174.6" class="st1" width="3.2" height="1.4"/>
			<rect x="94.9" y="173.2" class="st1" width="3.2" height="1.4"/>
			<rect x="94.9" y="171.9" class="st1" width="3.2" height="1.4"/>
			<rect x="104.4" y="170.5" class="st1" width="3.2" height="1.4"/>
			<rect x="101.2" y="171.9" class="st1" width="3.2" height="1.4"/>
			<rect x="98" y="170.5" class="st1" width="3.2" height="1.4"/>
			<rect x="107.5" y="174.6" class="st1" width="3.2" height="1.4"/>
			<rect x="104.4" y="173.2" class="st1" width="3.2" height="1.4"/>
			<rect x="104.4" y="178.7" class="st1" width="3.2" height="1.4"/>
			<rect x="101.2" y="177.4" class="st1" width="3.2" height="1.4"/>
			<rect x="98" y="178.7" class="st1" width="3.2" height="1.4"/>
			<rect x="110.7" y="170.5" class="st1" width="3.2" height="1.4"/>
			<rect x="110.7" y="178.7" class="st1" width="3.2" height="1.4"/>
			<rect x="120.2" y="177.4" class="st1" width="3.2" height="1.4"/>
			<rect x="110.7" y="176" class="st1" width="3.2" height="1.4"/>
			<rect x="110.7" y="174.6" class="st1" width="3.2" height="1.4"/>
			<rect x="110.7" y="173.2" class="st1" width="3.2" height="1.4"/>
			<rect x="110.7" y="171.9" class="st1" width="3.2" height="1.4"/>
			<rect x="117" y="174.6" class="st1" width="3.2" height="1.4"/>
			<rect x="113.9" y="173.2" class="st1" width="3.2" height="1.4"/>
			<rect x="120.2" y="173.2" class="st1" width="3.2" height="1.4"/>
			<rect x="120.2" y="171.9" class="st1" width="3.2" height="1.4"/>
			<rect x="123.4" y="171.9" class="st1" width="3.2" height="1.4"/>
			<rect x="107.6" y="170.5" class="st1" width="3.2" height="1.4"/>
			<rect x="126.6" y="177.4" class="st1" width="3.2" height="1.4"/>
			<rect x="136.1" y="174.6" class="st1" width="3.2" height="1.4"/>
			<rect x="123.4" y="170.5" class="st1" width="3.2" height="1.4"/>
			<rect x="126.6" y="171.9" class="st1" width="3.2" height="1.4"/>
			<rect x="136.1" y="170.5" class="st1" width="3.2" height="1.4"/>
			<rect x="132.9" y="170.5" class="st1" width="3.2" height="1.4"/>
			<rect x="126.6" y="170.5" class="st1" width="3.2" height="1.4"/>
			<rect x="132.9" y="171.9" class="st1" width="3.2" height="1.4"/>
			<rect x="129.7" y="174.6" class="st1" width="3.2" height="1.4"/>
			<rect x="132.9" y="178.7" class="st1" width="3.2" height="1.4"/>
			<rect x="129.7" y="178.7" class="st1" width="3.2" height="1.4"/>
			<rect x="136.1" y="177.4" class="st1" width="3.2" height="1.4"/>
			<rect x="142.4" y="177.4" class="st1" width="3.2" height="1.4"/>
			<rect x="145.6" y="176" class="st1" width="3.2" height="1.4"/>
			<rect x="142.4" y="173.2" class="st1" width="3.2" height="1.4"/>
			<rect x="139.2" y="173.2" class="st1" width="3.2" height="1.4"/>
			<rect x="142.4" y="171.9" class="st1" width="3.2" height="1.4"/>
			<rect x="151.9" y="171.9" class="st1" width="3.2" height="1.4"/>
			<rect x="148.8" y="171.9" class="st1" width="3.2" height="1.4"/>
			<rect x="145.6" y="170.5" class="st1" width="3.2" height="1.4"/>
			<rect x="151.9" y="178.7" class="st1" width="3.2" height="1.4"/>
			<rect x="148.8" y="178.7" class="st1" width="3.2" height="1.4"/>
			<rect x="145.6" y="178.7" class="st1" width="3.2" height="1.4"/>
			<line class="st2" x1="79" y1="170.5" x2="155.1" y2="170.5"/>
			<line class="st2" x1="79" y1="171.9" x2="155.1" y2="171.9"/>
			<line class="st2" x1="79.1" y1="173.2" x2="155.2" y2="173.2"/>
			<line class="st2" x1="79" y1="174.6" x2="155.1" y2="174.6"/>
			<line class="st2" x1="79.1" y1="176" x2="155.2" y2="176"/>
			<line class="st2" x1="79" y1="177.4" x2="155.1" y2="177.4"/>
			<line class="st2" x1="79.1" y1="178.7" x2="155.2" y2="178.7"/>
			<line class="st2" x1="79" y1="180.1" x2="155.1" y2="180.1"/>
			<line class="st2" x1="85.3" y1="170.5" x2="85.3" y2="180.1"/>
			<line class="st2" x1="88.5" y1="170.5" x2="88.5" y2="180.1"/>
			<line class="st2" x1="91.7" y1="170.5" x2="91.7" y2="180.1"/>
			<line class="st2" x1="94.9" y1="170.5" x2="94.9" y2="180.1"/>
			<line class="st2" x1="98" y1="170.5" x2="98" y2="180.1"/>
			<line class="st2" x1="101.2" y1="170.5" x2="101.2" y2="180.1"/>
			<line class="st2" x1="104.4" y1="170.5" x2="104.4" y2="180.1"/>
			<line class="st2" x1="107.5" y1="170.5" x2="107.5" y2="180.1"/>
			<line class="st2" x1="117" y1="170.5" x2="117" y2="180.1"/>
			<line class="st2" x1="120.2" y1="170.5" x2="120.2" y2="180.1"/>
			<line class="st2" x1="123.4" y1="170.5" x2="123.4" y2="180.1"/>
			<line class="st2" x1="126.6" y1="170.5" x2="126.6" y2="180.1"/>
			<line class="st2" x1="129.7" y1="170.5" x2="129.7" y2="180.1"/>
			<line class="st2" x1="132.9" y1="170.5" x2="132.9" y2="180.1"/>
			<line class="st2" x1="136.1" y1="170.5" x2="136.1" y2="180.1"/>
			<line class="st2" x1="139.2" y1="170.5" x2="139.2" y2="180.1"/>
			<line class="st2" x1="142.4" y1="170.5" x2="142.4" y2="180.1"/>
			<line class="st2" x1="148.8" y1="170.5" x2="148.8" y2="180.1"/>
			<line class="st2" x1="151.9" y1="170.5" x2="151.9" y2="180.1"/>
			<line class="st2" x1="79.1" y1="170.5" x2="79.1" y2="180.1"/>
		</g>
	</g>
	<g>
		<line class="st2" x1="155.1" y1="180.2" x2="155.1" y2="189.9"/>
		<g>
			<rect x="79" y="180.2" class="st1" width="3.2" height="1.4"/>
			<rect x="82.2" y="188.5" class="st1" width="3.2" height="1.4"/>
			<rect x="82.2" y="187.1" class="st1" width="3.2" height="1.4"/>
			<rect x="79" y="185.7" class="st1" width="3.2" height="1.4"/>
			<rect x="85.3" y="184.4" class="st1" width="3.2" height="1.4"/>
			<rect x="82.2" y="184.4" class="st1" width="3.2" height="1.4"/>
			<rect x="91.6" y="184.4" class="st1" width="3.2" height="1.4"/>
			<rect x="79" y="183" class="st1" width="3.2" height="1.4"/>
			<rect x="82.2" y="183" class="st1" width="3.2" height="1.4"/>
			<rect x="88.5" y="183" class="st1" width="3.2" height="1.4"/>
			<rect x="88.5" y="181.6" class="st1" width="3.2" height="1.4"/>
			<rect x="85.3" y="180.2" class="st1" width="3.2" height="1.4"/>
			<rect x="82.2" y="180.2" class="st1" width="3.2" height="1.4"/>
			<rect x="88.5" y="188.5" class="st1" width="3.2" height="1.4"/>
			<rect x="85.3" y="187.1" class="st1" width="3.2" height="1.4"/>
			<rect x="82.2" y="185.7" class="st1" width="3.2" height="1.4"/>
			<rect x="94.9" y="187.1" class="st1" width="3.2" height="1.4"/>
			<rect x="98" y="185.7" class="st1" width="3.2" height="1.4"/>
			<rect x="94.9" y="184.4" class="st1" width="3.2" height="1.4"/>
			<rect x="98" y="183" class="st1" width="3.2" height="1.4"/>
			<rect x="94.9" y="181.6" class="st1" width="3.2" height="1.4"/>
			<rect x="104.4" y="180.2" class="st1" width="3.2" height="1.4"/>
			<rect x="101.2" y="181.6" class="st1" width="3.2" height="1.4"/>
			<rect x="98" y="180.2" class="st1" width="3.2" height="1.4"/>
			<rect x="107.5" y="184.4" class="st1" width="3.2" height="1.4"/>
			<rect x="104.4" y="184.4" class="st1" width="3.2" height="1.4"/>
			<rect x="104.4" y="188.5" class="st1" width="3.2" height="1.4"/>
			<rect x="101.2" y="187.1" class="st1" width="3.2" height="1.4"/>
			<rect x="98" y="188.5" class="st1" width="3.2" height="1.4"/>
			<rect x="110.7" y="180.2" class="st1" width="3.2" height="1.4"/>
			<rect x="110.7" y="188.5" class="st1" width="3.2" height="1.4"/>
			<rect x="120.2" y="187.1" class="st1" width="3.2" height="1.4"/>
			<rect x="110.7" y="185.7" class="st1" width="3.2" height="1.4"/>
			<rect x="110.7" y="184.4" class="st1" width="3.2" height="1.4"/>
			<rect x="110.7" y="183" class="st1" width="3.2" height="1.4"/>
			<rect x="110.7" y="181.6" class="st1" width="3.2" height="1.4"/>
			<rect x="117" y="184.4" class="st1" width="3.2" height="1.4"/>
			<rect x="113.9" y="183" class="st1" width="3.2" height="1.4"/>
			<rect x="120.2" y="183" class="st1" width="3.2" height="1.4"/>
			<rect x="120.2" y="180.2" class="st1" width="3.2" height="1.4"/>
			<rect x="123.4" y="181.6" class="st1" width="3.2" height="1.4"/>
			<rect x="113.9" y="180.2" class="st1" width="3.2" height="1.4"/>
			<rect x="126.6" y="187.1" class="st1" width="3.2" height="1.4"/>
			<rect x="139.2" y="185.7" class="st1" width="3.2" height="1.4"/>
			<rect x="123.4" y="183" class="st1" width="3.2" height="1.4"/>
			<rect x="126.6" y="181.6" class="st1" width="3.2" height="1.4"/>
			<rect x="136.1" y="180.2" class="st1" width="3.2" height="1.4"/>
			<rect x="132.9" y="180.2" class="st1" width="3.2" height="1.4"/>
			<rect x="126.6" y="180.2" class="st1" width="3.2" height="1.4"/>
			<rect x="132.9" y="181.6" class="st1" width="3.2" height="1.4"/>
			<rect x="129.7" y="184.4" class="st1" width="3.2" height="1.4"/>
			<rect x="132.9" y="185.7" class="st1" width="3.2" height="1.4"/>
			<rect x="129.7" y="188.5" class="st1" width="3.2" height="1.4"/>
			<rect x="136.1" y="187.1" class="st1" width="3.2" height="1.4"/>
			<rect x="142.4" y="187.1" class="st1" width="3.2" height="1.4"/>
			<rect x="145.6" y="185.7" class="st1" width="3.2" height="1.4"/>
			<rect x="142.4" y="183" class="st1" width="3.2" height="1.4"/>
			<rect x="139.2" y="183" class="st1" width="3.2" height="1.4"/>
			<rect x="142.4" y="181.6" class="st1" width="3.2" height="1.4"/>
			<rect x="151.9" y="181.6" class="st1" width="3.2" height="1.4"/>
			<rect x="148.8" y="180.2" class="st1" width="3.2" height="1.4"/>
			<rect x="145.6" y="180.2" class="st1" width="3.2" height="1.4"/>
			<rect x="151.9" y="188.5" class="st1" width="3.2" height="1.4"/>
			<rect x="148.8" y="184.4" class="st1" width="3.2" height="1.4"/>
			<rect x="142.4" y="188.5" class="st1" width="3.2" height="1.4"/>
			<line class="st2" x1="79" y1="180.2" x2="155.1" y2="180.2"/>
			<line class="st2" x1="79" y1="181.6" x2="155.1" y2="181.6"/>
			<line class="st2" x1="79.1" y1="183" x2="155.2" y2="183"/>
			<line class="st2" x1="79" y1="184.4" x2="155.1" y2="184.4"/>
			<line class="st2" x1="79.1" y1="185.7" x2="155.2" y2="185.7"/>
			<line class="st2" x1="79" y1="187.1" x2="155.1" y2="187.1"/>
			<line class="st2" x1="79.1" y1="188.5" x2="155.2" y2="188.5"/>
			<line class="st2" x1="79" y1="189.9" x2="155.1" y2="189.9"/>
			<line class="st2" x1="85.3" y1="180.2" x2="85.3" y2="189.9"/>
			<line class="st2" x1="88.5" y1="180.2" x2="88.5" y2="189.9"/>
			<line class="st2" x1="91.7" y1="180.2" x2="91.7" y2="189.9"/>
			<line class="st2" x1="94.9" y1="180.2" x2="94.9" y2="189.9"/>
			<line class="st2" x1="98" y1="180.2" x2="98" y2="189.9"/>
			<line class="st2" x1="101.2" y1="180.2" x2="101.2" y2="189.9"/>
			<line class="st2" x1="104.4" y1="180.2" x2="104.4" y2="189.9"/>
			<line class="st2" x1="107.5" y1="180.2" x2="107.5" y2="189.9"/>
			<line class="st2" x1="117" y1="180.2" x2="117" y2="189.9"/>
			<line class="st2" x1="120.2" y1="180.2" x2="120.2" y2="189.9"/>
			<line class="st2" x1="123.4" y1="180.2" x2="123.4" y2="189.9"/>
			<line class="st2" x1="126.6" y1="180.2" x2="126.6" y2="189.9"/>
			<line class="st2" x1="129.7" y1="180.2" x2="129.7" y2="189.9"/>
			<line class="st2" x1="132.9" y1="180.2" x2="132.9" y2="189.9"/>
			<line class="st2" x1="136.1" y1="180.2" x2="136.1" y2="189.9"/>
			<line class="st2" x1="139.2" y1="180.2" x2="139.2" y2="189.9"/>
			<line class="st2" x1="142.4" y1="180.2" x2="142.4" y2="189.9"/>
			<line class="st2" x1="148.8" y1="180.2" x2="148.8" y2="189.9"/>
			<line class="st2" x1="151.9" y1="180.2" x2="151.9" y2="189.9"/>
			<line class="st2" x1="79.1" y1="180.2" x2="79.1" y2="189.9"/>
		</g>
	</g>
	<g>
		<line class="st2" x1="155.1" y1="189.9" x2="155.1" y2="199.5"/>
		<g>
			<rect x="79" y="189.9" class="st1" width="3.2" height="1.4"/>
			<rect x="82.2" y="198.1" class="st1" width="3.2" height="1.4"/>
			<rect x="82.2" y="196.8" class="st1" width="3.2" height="1.4"/>
			<rect x="79" y="195.4" class="st1" width="3.2" height="1.4"/>
			<rect x="85.3" y="194" class="st1" width="3.2" height="1.4"/>
			<rect x="82.2" y="194" class="st1" width="3.2" height="1.4"/>
			<rect x="91.6" y="194" class="st1" width="3.2" height="1.4"/>
			<rect x="82.2" y="192.6" class="st1" width="3.2" height="1.4"/>
			<rect x="82.2" y="191.3" class="st1" width="3.2" height="1.4"/>
			<rect x="88.5" y="192.6" class="st1" width="3.2" height="1.4"/>
			<rect x="88.5" y="191.3" class="st1" width="3.2" height="1.4"/>
			<rect x="85.3" y="189.9" class="st1" width="3.2" height="1.4"/>
			<rect x="82.2" y="189.9" class="st1" width="3.2" height="1.4"/>
			<rect x="88.5" y="198.1" class="st1" width="3.2" height="1.4"/>
			<rect x="85.3" y="196.8" class="st1" width="3.2" height="1.4"/>
			<rect x="82.2" y="195.4" class="st1" width="3.2" height="1.4"/>
			<rect x="94.9" y="196.8" class="st1" width="3.2" height="1.4"/>
			<rect x="98" y="195.4" class="st1" width="3.2" height="1.4"/>
			<rect x="94.9" y="194" class="st1" width="3.2" height="1.4"/>
			<rect x="94.9" y="191.3" class="st1" width="3.2" height="1.4"/>
			<rect x="104.4" y="189.9" class="st1" width="3.2" height="1.4"/>
			<rect x="101.2" y="191.3" class="st1" width="3.2" height="1.4"/>
			<rect x="98" y="189.9" class="st1" width="3.2" height="1.4"/>
			<rect x="101.2" y="194" class="st1" width="3.2" height="1.4"/>
			<rect x="104.4" y="192.6" class="st1" width="3.2" height="1.4"/>
			<rect x="104.4" y="198.1" class="st1" width="3.2" height="1.4"/>
			<rect x="101.2" y="196.8" class="st1" width="3.2" height="1.4"/>
			<rect x="98" y="198.1" class="st1" width="3.2" height="1.4"/>
			<rect x="110.7" y="189.9" class="st1" width="3.2" height="1.4"/>
			<rect x="110.7" y="198.1" class="st1" width="3.2" height="1.4"/>
			<rect x="120.2" y="196.8" class="st1" width="3.2" height="1.4"/>
			<rect x="110.7" y="196.8" class="st1" width="3.2" height="1.4"/>
			<rect x="110.7" y="194" class="st1" width="3.2" height="1.4"/>
			<rect x="110.7" y="192.6" class="st1" width="3.2" height="1.4"/>
			<rect x="117" y="194" class="st1" width="3.2" height="1.4"/>
			<rect x="113.9" y="192.6" class="st1" width="3.2" height="1.4"/>
			<rect x="120.2" y="192.6" class="st1" width="3.2" height="1.4"/>
			<rect x="120.2" y="191.3" class="st1" width="3.2" height="1.4"/>
			<rect x="123.4" y="191.3" class="st1" width="3.2" height="1.4"/>
			<rect x="113.9" y="189.9" class="st1" width="3.2" height="1.4"/>
			<rect x="126.6" y="196.8" class="st1" width="3.2" height="1.4"/>
			<rect x="136.1" y="195.4" class="st1" width="3.2" height="1.4"/>
			<rect x="123.4" y="192.6" class="st1" width="3.2" height="1.4"/>
			<rect x="126.6" y="191.3" class="st1" width="3.2" height="1.4"/>
			<rect x="136.1" y="189.9" class="st1" width="3.2" height="1.4"/>
			<rect x="132.9" y="189.9" class="st1" width="3.2" height="1.4"/>
			<rect x="126.6" y="189.9" class="st1" width="3.2" height="1.4"/>
			<rect x="132.9" y="191.3" class="st1" width="3.2" height="1.4"/>
			<rect x="129.7" y="194" class="st1" width="3.2" height="1.4"/>
			<rect x="132.9" y="198.1" class="st1" width="3.2" height="1.4"/>
			<rect x="129.7" y="198.1" class="st1" width="3.2" height="1.4"/>
			<rect x="136.1" y="196.8" class="st1" width="3.2" height="1.4"/>
			<rect x="142.4" y="196.8" class="st1" width="3.2" height="1.4"/>
			<rect x="145.6" y="195.4" class="st1" width="3.2" height="1.4"/>
			<rect x="142.4" y="192.6" class="st1" width="3.2" height="1.4"/>
			<rect x="139.2" y="192.6" class="st1" width="3.2" height="1.4"/>
			<rect x="142.4" y="191.3" class="st1" width="3.2" height="1.4"/>
			<rect x="151.9" y="191.3" class="st1" width="3.2" height="1.4"/>
			<rect x="148.8" y="191.3" class="st1" width="3.2" height="1.4"/>
			<rect x="145.6" y="189.9" class="st1" width="3.2" height="1.4"/>
			<rect x="151.9" y="196.8" class="st1" width="3.2" height="1.4"/>
			<rect x="148.8" y="198.1" class="st1" width="3.2" height="1.4"/>
			<rect x="145.6" y="198.1" class="st1" width="3.2" height="1.4"/>
			<line class="st2" x1="79" y1="189.9" x2="155.1" y2="189.9"/>
			<line class="st2" x1="79" y1="191.3" x2="155.1" y2="191.3"/>
			<line class="st2" x1="79.1" y1="192.6" x2="155.2" y2="192.6"/>
			<line class="st2" x1="79" y1="194" x2="155.1" y2="194"/>
			<line class="st2" x1="79.1" y1="195.4" x2="155.2" y2="195.4"/>
			<line class="st2" x1="79" y1="196.8" x2="155.1" y2="196.8"/>
			<line class="st2" x1="79.1" y1="198.1" x2="155.2" y2="198.1"/>
			<line class="st2" x1="79" y1="199.5" x2="155.1" y2="199.5"/>
			<line class="st2" x1="85.3" y1="189.9" x2="85.3" y2="199.5"/>
			<line class="st2" x1="88.5" y1="189.9" x2="88.5" y2="199.5"/>
			<line class="st2" x1="91.7" y1="189.9" x2="91.7" y2="199.5"/>
			<line class="st2" x1="94.9" y1="189.9" x2="94.9" y2="199.5"/>
			<line class="st2" x1="98" y1="189.9" x2="98" y2="199.5"/>
			<line class="st2" x1="101.2" y1="189.9" x2="101.2" y2="199.5"/>
			<line class="st2" x1="104.4" y1="189.9" x2="104.4" y2="199.5"/>
			<line class="st2" x1="107.5" y1="189.9" x2="107.5" y2="199.5"/>
			<line class="st2" x1="117" y1="189.9" x2="117" y2="199.5"/>
			<line class="st2" x1="120.2" y1="189.9" x2="120.2" y2="199.5"/>
			<line class="st2" x1="123.4" y1="189.9" x2="123.4" y2="199.5"/>
			<line class="st2" x1="126.6" y1="189.9" x2="126.6" y2="199.5"/>
			<line class="st2" x1="129.7" y1="189.9" x2="129.7" y2="199.5"/>
			<line class="st2" x1="132.9" y1="189.9" x2="132.9" y2="199.5"/>
			<line class="st2" x1="136.1" y1="189.9" x2="136.1" y2="199.5"/>
			<line class="st2" x1="139.2" y1="189.9" x2="139.2" y2="199.5"/>
			<line class="st2" x1="142.4" y1="189.9" x2="142.4" y2="199.5"/>
			<line class="st2" x1="148.8" y1="189.9" x2="148.8" y2="199.5"/>
			<line class="st2" x1="151.9" y1="189.9" x2="151.9" y2="199.5"/>
			<line class="st2" x1="79.1" y1="189.9" x2="79.1" y2="199.5"/>
		</g>
	</g>
</g>
<rect x="110.7" y="177.4" class="st1" width="3.2" height="1.4"/>
<path class="st1" d="M117.3,132.6l2.6-3.5h-6.3l2.6,3.5C116.5,133,117.1,133,117.3,132.6z"/>
<g>
	<path class="st3" d="M41.3,187.1c0,0,2.4-0.2,6.1-0.8c8.8-1.5,24.8-5.6,31.2-15.1"/>
	<path class="st3" d="M78.5,198.8c0,0-16.6-13-28.6-13"/>
	<path class="st3" d="M78.5,197.5c0,0-1.5,0.5-1.9,0"/>
	<path class="st3" d="M78.5,172.5c0,0-0.5-0.7-0.9-0.1"/>
	<path class="st3" d="M78.5,173.9c0,0-1.8-0.6-2.2,0"/>
	<polyline class="st3" points="78.5,175.3 73.8,177.2 70.3,178.6 	"/>
	<path class="st3" d="M78.5,176.7c0,0-0.8,0.3-4.1,0.3"/>
	<line class="st3" x1="78.5" y1="178.1" x2="71" y2="178.3"/>
	<path class="st3" d="M78.5,179.4c0,0-14.7,0.2-20,8.1"/>
	<path class="st3" d="M78.5,180.9c0,0-10.7,2.9-16.1,2.9"/>
	<path class="st3" d="M78.5,182.3c0,0-0.7-0.6-3.1-0.6"/>
	<path class="st3" d="M71,182.7c0,0,3.1,0.8,7.5,0.8"/>
	<path class="st3" d="M63.2,189.4c0,0,9.7-4.4,15.3-4.4"/>
	<path class="st3" d="M78.5,186.4c0,0-2.2-0.4-5.8-0.4"/>
	<path class="st3" d="M78.5,187.8c0,0-0.6-1.6-2.1-1.6"/>
	<path class="st3" d="M78.5,189.2c0,0-6.9-1.7-10.2-1.7"/>
	<path class="st3" d="M78.5,190.6c0,0-2.2,1.6-10,1.6"/>
	<path class="st3" d="M78.5,191.9c0,0-2.4,0.3-7.2,0.3"/>
	<line class="st3" x1="78.5" y1="193.3" x2="74.7" y2="192.2"/>
	<path class="st3" d="M78.5,194.7c0,0-1.3-0.5-6.6-0.5"/>
	<path class="st3" d="M78.5,196.1c0,0-0.6,0-4.1,0"/>
</g>
<g>
	<path class="st1" d="M51.7,78c2.7-0.5,6.5-0.8,10.1-0.8c5.6,0,9.2,1,11.7,3.3c2,1.8,3.2,4.6,3.2,7.7c0,5.3-3.4,8.9-7.6,10.3v0.1
		c3.1,1.1,5,4.1,5.9,8.2c1.3,5.7,2.3,9.5,3.1,11.1h-5.4c-0.7-1.1-1.6-4.6-2.7-9.7c-1.2-5.5-3.4-7.7-8.1-7.9H57v17.5h-5.3V78z
		 M57,96.4h5.3c5.6,0,9.1-3.1,9.1-7.7c0-5.3-3.8-7.5-9.3-7.6c-2.6,0-4.3,0.2-5.2,0.5V96.4z"/>
	<path class="st1" d="M86.8,104.3c0.1,7.1,4.6,10.1,10,10.1c3.8,0,6.1-0.7,8-1.5l0.9,3.8c-1.8,0.8-5,1.9-9.7,1.9
		c-8.9,0-14.3-5.9-14.3-14.6c0-8.8,5.2-15.7,13.7-15.7c9.4,0,11.9,8.3,11.9,13.6c0,1.1-0.1,1.9-0.2,2.5H86.8z M102.3,100.6
		c0.1-3.3-1.4-8.5-7.3-8.5c-5.3,0-7.7,4.9-8.1,8.5H102.3z"/>
	<path class="st1" d="M114,98.3c0-3.7-0.1-6.7-0.2-9.4h4.7l0.2,4.9h0.1c2.1-3.5,5.6-5.6,10.3-5.6c7,0,12.3,5.9,12.3,14.7
		c0,10.4-6.4,15.6-13.1,15.6c-4,0-7.3-1.7-9-4.6h-0.1v15.8H114V98.3z M119.2,106.1c0,0.8,0.1,1.5,0.2,2.2c1,3.7,4.1,6.2,7.9,6.2
		c5.6,0,8.8-4.6,8.8-11.2c0-5.8-3.1-10.7-8.6-10.7c-3.6,0-7,2.5-8,6.5c-0.2,0.7-0.4,1.4-0.4,2.2V106.1z"/>
	<path class="st1" d="M147.4,112.5c1.6,1,4.3,2.1,7,2.1c3.8,0,5.6-1.9,5.6-4.3c0-2.5-1.5-3.8-5.4-5.3c-5.2-1.9-7.7-4.8-7.7-8.3
		c0-4.6,3.8-8.5,10-8.5c2.9,0,5.5,0.8,7.1,1.7l-1.3,3.8c-1.1-0.7-3.2-1.7-6-1.7c-3.1,0-4.8,1.9-4.8,4c0,2.4,1.7,3.5,5.5,5
		c5,1.9,7.6,4.3,7.6,8.7c0,5.1-4,8.8-10.9,8.8c-3.2,0-6.1-0.8-8.2-2L147.4,112.5z"/>
	<path class="st1" d="M192.6,116.8c-1.4,0.7-4.4,1.7-8.3,1.7c-8.8,0-14.5-5.9-14.5-14.8c0-8.9,6.1-15.5,15.6-15.5
		c3.1,0,5.9,0.8,7.3,1.5l-1.2,4.1c-1.3-0.7-3.2-1.4-6.1-1.4c-6.7,0-10.3,5-10.3,11c0,6.7,4.3,10.9,10.1,10.9c2.9,0,4.9-0.8,6.4-1.4
		L192.6,116.8z"/>
</g>
</svg>
